<svg xmlns="http://www.w3.org/2000/svg" role="img" viewBox="-13.24 -18.24 1312.48 539.48"><title>Kubernetes-AI-HPC-Day-NA_2023_Logo_Color.svg</title><defs><style>.cls-1{fill:#fff}.cls-2{fill:#326ce5}</style></defs><path d="M515.01735 304.82486l.00243.01501-43.26852-187.94327c-2.35607-9.84555-9.00365-18.11568-18.1125-22.5333l-175.1429-83.62132c-9.19343-4.38715-19.87664-4.38715-29.07007 0L74.31761 94.40801c-9.11112 4.41489-15.76097 12.68442-18.1175 22.53088L13.00117 304.877a33.06921 33.06921 0 0 0-.01 14.42946 33.53524 33.53524 0 0 0 1.2195 4.26679 32.53706 32.53706 0 0 0 3.33531 6.77021c.5936.90647 1.2195 1.78809 1.89996 2.64242l121.20754 150.6972c.52903.65575 1.11263 1.25421 1.69123 1.86267a33.33733 33.33733 0 0 0 6.39276 5.29742 34.57645 34.57645 0 0 0 9.57906 4.16493 33.02204 33.02204 0 0 0 8.51858 1.17478h1.8851l192.4855-.04472a32.25708 32.25708 0 0 0 3.50175-.20615 33.45313 33.45313 0 0 0 4.93983-.93876 34.44357 34.44357 0 0 0 3.42975-1.09777c.87676-.33515 1.75095-.67046 2.59543-1.07534a34.62356 34.62356 0 0 0 3.67319-2.04154 33.0362 33.0362 0 0 0 8.03927-7.11537l3.69547-4.59452 117.46978-146.13254a32.74374 32.74374 0 0 0 5.23527-9.4002 33.92492 33.92492 0 0 0 1.24178-4.28165 32.98662 32.98662 0 0 0-.00985-14.42946z" class="cls-2"/><g id="lAr6Y3"><path d="M389.95055 168.265c.00024 7.15481.05353 14.31031-.04048 21.46389-.0212 1.61238.53201 2.46614 1.89544 3.24743 14.22753 8.15262 28.4095 16.38481 42.6381 24.53558 1.31084.75094 1.75863 1.58616 1.75657 3.08636-.04436 32.39908-.04366 64.79825-.00171 97.19732.00193 1.48463-.40841 2.34484-1.7313 3.10254-14.10384 8.07812-28.15643 16.24569-42.26356 24.31798-1.62556.93018-2.32869 1.91001-2.31 3.89591.11406 12.1183.02503 24.23841.0954 36.35738.00928 1.59724-.49183 2.47165-1.86927 3.2647-27.0288 15.56107-54.06848 31.10424-80.9899 46.8495-3.57012 2.088-6.1281 2.4255-9.85824.09136-10.24974-6.41384-20.88368-12.21153-31.30385-18.35768-1.47848-.87208-2.51606-.82952-3.93617.00176-11.44682 6.70054-22.94779 13.3086-34.39326 20.01142-1.29066.75586-2.24238.78096-3.54188.02794-22.70114-13.15465-45.43043-26.26072-68.15275-39.37882-5.30143-3.06067-10.57431-6.17217-15.91606-9.16065-1.44554-.80869-2.01544-1.71981-2.00393-3.42948.08215-12.19182.01231-24.38464.08056-36.57662.00929-1.65986-.46585-2.57149-1.95624-3.42231-14.36961-8.20317-28.67598-16.51702-43.03043-24.7469-.98219-.56314-1.28325-1.17392-1.28258-2.23578.02057-32.78071.02476-65.56142-.01469-98.34208-.00148-1.22817.48816-1.80523 1.46053-2.36358 14.34454-8.23709 28.66354-16.51871 43.01785-24.73868 1.28988-.73864 1.81105-1.55573 1.80434-3.08103-.061-13.8713.02924-27.74356-.09331-41.61405-.023-2.60336.6511-4.04171 3.05447-5.41664 27.771-15.88741 55.45478-31.92743 83.13465-47.9736 1.23238-.71441 2.10723-.74546 3.34017-.02613 11.70826 6.83093 23.46532 13.57823 35.17499 20.40679 1.07487.62683 1.80943.43485 2.7722-.1233 11.665-6.76264 23.36505-13.46503 35.00923-20.26318 1.2579-.73439 2.14185-.67609 3.33577.01504 22.58227 13.07226 45.18547 26.10841 67.78335 39.15368 5.55312 3.20571 11.08448 6.44986 16.66865 9.60048 1.23712.69801 1.7135 1.50571 1.69951 2.94031-.07048 7.22713-.03235 14.45532-.03214 21.68314zm-133.47468 28.23624c0-21.82476-.0167-43.64955.03642-65.47418.00365-1.50272-.43539-2.33319-1.746-3.0783-9.18641-5.22271-18.34172-10.50094-27.46088-15.84013-1.1489-.67267-1.92444-.51412-2.95059.11073-2.73932 1.66805-5.5384 3.23809-8.31624 4.84276-20.50609 11.84569-41.00577 23.70262-61.53959 35.50007-1.06039.60924-1.39663 1.24556-1.39323 2.38401.03509 11.75294.04716 23.50604.01432 35.25895-.00331 1.18377.38126 1.84027 1.43327 2.386 2.77994 1.44208 5.52503 2.958 8.22498 4.54495 1.45484.85512 2.75144 1.07351 4.47562.56467 6.66365-1.96652 13.8262 2.15809 15.59368 8.77567 1.92293 7.1996-2.26301 14.2796-9.45803 15.99713-6.82741 1.62978-13.83324-2.73814-15.31762-9.60937-.18496-.8562-.46484-1.44626-1.25295-1.87381-3.39473-1.84161-6.76686-3.72498-10.14138-5.60364-.68804-.38303-1.26242-.39747-2.0046.03408-12.15751 7.06889-24.33241 14.10793-36.52261 21.12031-.78478.45141-1.19721.91933-1.19553 1.85467.0204 11.3884.02591 22.7769-.0036 34.16526-.00301 1.16281.42254 1.49518 1.54116 1.46208 2.26002-.06688 4.52764-.08163 6.78466.03139 1.36188.06821 2.27371-.37505 3.22131-1.36775 4.82322-5.05269 12.54516-5.27562 17.7498-.61289 5.05393 4.52772 5.65122 12.45905 1.32398 17.58105-4.61266 5.45982-12.42962 6.54667-17.74539 1.88376-2.42232-2.12482-4.73475-2.69045-7.63455-2.44881-1.15581.09632-2.33062.08043-3.48889.00078-1.30545-.08976-1.76923.37314-1.76251 1.72669.04785 9.63615.03828 19.27272.00618 28.90899-.00358 1.07352.33464 1.7509 1.27859 2.29227 12.2 6.99695 24.39064 14.01032 36.55758 21.06448.88258.51175 1.54795.49226 2.4076.06438 2.86996-1.42848 5.74445-2.85437 8.67359-4.15419 1.16979-.51913 1.78908-1.23212 2.18682-2.44772 1.74751-5.34083 5.89562-8.50912 11.53061-8.8067 5.13419-.27111 9.08978 1.90122 11.64409 6.30967 2.65523 4.5826 2.46093 9.29216-.51637 13.62824-2.92097 4.25405-7.30598 6.6699-12.27241 5.25891-3.90853-1.11044-6.84345-.20531-10.00722 1.47669-1.2855.6834-2.59093 1.34851-3.94232 1.88274-1.05443.41683-1.36813 1.05729-1.36424 2.15514.03444 9.70889.0305 19.41802-.00331 29.12691-.00346.99464.27163 1.58265 1.18852 2.06528 2.12635 1.11924 4.18338 2.37043 6.26563 3.57311 20.94894 12.09958 41.90677 24.18382 62.82758 36.33182 1.65028.95828 2.87172 1.27001 4.70093.17828 8.94777-5.34032 18.00113-10.50424 27.04019-15.69037.99705-.57209 1.41308-1.19531 1.40563-2.39612-.06297-10.14564-.05408-20.2917-.05489-30.43766-.00159-19.70798.00695-39.41599.00651-59.12397-.00024-10.29149-.04041-20.58315.01492-30.87431.00853-1.58783-.36381-2.2286-2.06997-2.10899-2.02803.1422-4.08011.06273-6.11475-.04888-1.62746-.08927-2.8178.36436-4.0424 1.56848-3.5446 3.48531-7.84891 4.66369-12.6707 3.19181-5.29828-1.61735-8.78463-6.16575-9.10593-11.63378-.30869-5.2532 2.80518-10.21513 7.75417-12.35624 5.0506-2.18507 10.46699-1.04816 14.40861 3.06465.61839.64525 1.14648 1.19458 2.18074 1.16184 2.69725-.08538 5.39939-.07371 8.09818-.02458 1.04684.01906 1.41079-.35603 1.40229-1.3912-.01619-1.96837.11353-3.9376.1145-5.90649.00989-20.07287.00604-40.14575.00604-60.21862zm15.02459.03674h.04163c0 2.9926-.00003 5.98518 0 8.97778.00013 17.07897-.00459 34.15794.00611 51.2369.00146 2.32583-.81114 5.4213.35769 6.77444 1.33548 1.54607 4.51681.28248 6.88078.49218 2.21983.19693 3.85309-.42333 5.59404-2.04215 4.99284-4.64263 12.63419-4.22464 17.3833.59161 4.72173 4.78848 5.01132 12.22209.67348 17.28785-4.4134 5.15401-12.18358 6.3589-17.2394 1.90106-2.70029-2.38093-5.33817-2.74965-8.45995-2.69075-1.0216.01929-2.05533.09851-3.06333-.0206-1.80093-.21277-2.1771.59466-2.16577 2.25376.0673 9.85297.03293 19.70664.03294 29.56007.00003 30.14366.01138 60.28735-.03453 90.43093-.00218 1.42915.42077 2.21455 1.65762 2.92225 9.23412 5.28364 18.44143 10.61482 27.61371 16.00506 1.17656.69139 1.95512.37496 2.96-.20828 10.33611-5.99894 20.69359-11.96103 31.04427-17.93483 12.74755-7.35712 25.49602-14.71278 38.2383-22.07908.98173-.56752 1.93175-1.00237 1.91771-2.55587-.08772-9.70752-.057-19.41631-.02348-29.1245.0035-1.01994-.33445-1.57642-1.26504-1.99632-2.65464-1.19782-5.30105-2.42334-7.88403-3.76621-1.20442-.62621-2.20027-.64722-3.48448-.15753-8.09812 3.08791-16.83003-2.67919-17.25986-11.32089-.31068-6.24617 4.17376-12.02012 10.22927-13.17069 6.44146-1.22391 12.49093 2.18714 14.6465 8.25889.35713 1.00593.49747 2.05052 1.72826 2.59162 3.20034 1.40714 6.34783 2.93749 9.487 4.47853.74431.36539 1.2818.34173 2.00544-.0777 12.16926-7.05339 24.35675-14.07531 36.5444-21.09694.86494-.49832 1.42134-1.04651 1.41562-2.20295-.04794-9.70846-.0508-19.41735-.00348-29.12581.00695-1.42188-.60714-1.71852-1.84208-1.6766-2.25808.07663-4.52158.12291-6.77851.04977-1.20287-.03898-1.98758.35068-2.82314 1.23653-4.72532 5.01004-12.47861 5.40559-17.58223.99157-5.32519-4.60564-6.00506-12.41008-1.55963-17.90318 4.27932-5.28777 12.12006-6.47613 17.39956-2.01329 2.61381 2.2095 5.16461 2.81073 8.25872 2.6365.87198-.04909 1.76074-.09625 2.62151.01408 1.80074.23079 2.34187-.42815 2.32706-2.27407-.08708-10.87596-.06791-21.75308-.01203-32.62945.00725-1.41301-.40707-2.22975-1.65941-2.94534-11.95691-6.83241-23.88586-13.71412-35.78962-20.63876-.96919-.56379-1.66136-.54261-2.57408-.02259-3.03893 1.7314-6.09843 3.42849-9.18276 5.07747-1.08884.58213-1.68422 1.27179-2.02022 2.57109-1.86015 7.19332-9.0895 11.14773-16.20166 9.01478-6.47534-1.94195-10.40758-9.16459-8.51569-15.64137 2.07808-7.11414 9.32548-11.00678 16.38925-8.72372 1.06312.34361 1.88229.36051 2.86215-.21176 2.89268-1.68947 5.80737-3.34974 8.78718-4.87768 1.27455-.65355 1.75994-1.41176 1.75146-2.87026-.06799-11.67882-.06893-23.35823-.02342-35.0372.00473-1.21379-.42926-1.76855-1.44556-2.33872-5.08397-2.85226-10.11136-5.80535-15.15894-8.72251-18.1055-10.46376-36.21821-20.91512-54.30229-31.41576-1.34292-.77979-2.34968-.81401-3.72877-.00313-8.91817 5.24368-17.86569 10.43997-26.88689 15.50341-1.53957.86413-1.92108 1.78049-1.91743 3.40789.04893 21.75007.03273 43.50028.03273 65.25046z" class="cls-1"/><path d="M224.41067 204.20856c-.00174 8.2348-.032 16.4698.02659 24.70418.01037 1.45651-.37964 2.37011-1.65786 3.21431-9.91448 6.54817-19.7594 13.20158-29.66 19.77092-1.08995.72322-1.54274 1.47853-1.5363 2.81369.05434 11.24134.05917 22.48319-.0036 33.72443-.00815 1.45954.43782 2.14448 1.78765 2.74513 9.78124 4.35244 19.50454 8.83507 29.28022 13.20021 1.32723.59265 1.80666 1.29693 1.80225 2.76154-.05206 17.26948-.04425 34.53923-.01307 51.80882.00205 1.13595-.42279 1.89916-1.20853 2.63721-2.65883 2.49753-5.26804 5.04777-7.91461 7.55848-.71381.6772-1.08187 1.33474-1.07638 2.4412.03746 7.55669-5.85271 13.46723-13.02174 13.20925-7.28548-.26216-12.86171-6.27591-12.55277-13.53774.30665-7.20828 6.56957-12.55625 14.14947-12.00817.75818.05481 1.23129-.12369 1.7288-.61319 1.29993-1.27897 2.60178-2.55876 3.95953-3.77495.66881-.5991.83045-1.26212.82865-2.123-.02515-12.04437-.0471-24.08898.01969-36.13303.00797-1.43434-.56303-2.03533-1.75038-2.56716-9.7045-4.34656-19.37268-8.77456-29.09264-13.08594-1.45512-.64541-2.04621-1.33731-2.03903-3.01885.07229-16.93498.06062-33.87046.00343-50.80555-.00527-1.56321.46772-2.47775 1.78726-3.35256 9.78282-6.48548 19.48825-13.08773 29.26819-19.57762 1.28874-.85518 1.83877-1.69757 1.82745-3.29914-.08057-11.38688-.04303-22.77461-.04314-34.16207-.00001-2.39835-2.30671-4.34597-4.68001-3.95155-7.12003 1.18325-13.78855-3.5558-14.89372-10.58439-1.10138-7.00456 3.81865-13.84471 10.58118-14.71065 7.5282-.96398 13.89866 3.88184 14.73029 11.28044.14062 1.25099.54007 2.13001 1.60116 2.8806 2.14106 1.51453 4.1223 3.25575 6.27028 4.75945 1.1535.80753 1.52932 1.72199 1.52031 3.09242-.05418 8.23413-.0269 16.46878-.02862 24.70326zm79.24356 128.75756c0-8.66684.03238-17.33395-.03313-26.0003-.01043-1.38121.44258-2.04972 1.68997-2.60659 9.7752-4.36405 19.50673-8.8259 29.28399-13.1852 1.313-.58541 1.85352-1.25292 1.84475-2.74863-.06585-11.24055-.0539-22.48171-.01037-33.72248.00479-1.23806-.39159-1.9718-1.42698-2.66226-10.00751-6.67341-19.97065-13.41332-29.97145-20.09686-.93261-.62327-1.40698-1.24484-1.40407-2.4414.04051-16.67803.04414-33.35624-.00503-50.03422-.00414-1.40502.3879-2.38676 1.57008-3.08384.187-.11027.34844-.26432.51982-.40046 3.48721-2.77012 6.96909-4.97095 8.12547-10.23782 1.48679-6.77158 9.00648-9.80446 15.83282-7.7769 6.12717 1.8199 9.82084 8.4841 8.39375 15.14424-1.36731 6.38112-7.54757 10.60941-14.33266 9.68027-1.2522-.17145-2.14198.0177-3.19377.73526-1.43434.97855-1.88707 2.12523-1.87686 3.80965.06858 11.30288.07551 22.60642.02302 33.90939-.00631 1.36309.51434 2.08052 1.57821 2.78917 9.88843 6.5869 19.73474 13.23703 29.62614 19.81942 1.1371.75669 1.66291 1.51809 1.65791 2.97067-.05869 17.00707-.05738 34.01454.00634 51.0216.00604 1.61446-.45017 2.38714-1.96977 3.05968-9.39037 4.15598-18.6951 8.50567-28.09143 12.64777-2.05145.90433-2.87132 1.94028-2.84078 4.29966.14719 11.37388.09419 22.75098.02446 34.12641-.00941 1.53698.40771 2.65165 1.59575 3.55953.51905.3967 1.00178.85532 1.43987 1.34094 1.39642 1.54797 2.82236 2.33139 5.19942 2.32318 7.02914-.02433 12.68547 6.21569 12.44984 13.1323-.24005 7.04599-6.18888 12.66312-13.19569 12.45994-7.03657-.20403-12.63454-6.0831-12.43313-13.1715.03008-1.0582-.18994-1.74494-.97146-2.45844-2.31602-2.11447-4.44271-4.44704-6.84514-6.45272-1.80708-1.50853-2.37994-3.21858-2.35302-5.49353.09572-8.08429.03738-16.17043.03738-24.25587.01858-.00003.03719-.00003.05577-.00005z" class="cls-1"/></g><path d="M591.798 194.43h683.1v173.771h-683.1z" class="cls-2"/><path d="M633.27434 105.72709l29.27193 45.98948h-23.08418l-20.4673-33.07999-7.25836 8.50783v24.57215h-19.57425V70.5059h19.57425v34.62626h.83343l27.96283-34.62626h20.94165l-28.20001 35.22119zm97.60093 45.98947h-18.3844v-10.64904h-.95135c-.5565 1.66553-1.58735 3.39068-3.09388 5.17546-1.50785 1.78478-3.53113 3.3019-6.06851 4.55138-2.5387 1.24948-5.67233 1.87355-9.40089 1.87355-4.20423 0-7.88243-.78308-11.03594-2.34923-3.1535-1.56615-5.60343-3.98693-7.34846-7.25836-1.74503-3.27275-2.61688-7.44651-2.61688-12.52391v-42.3603h18.978v37.48164c0 3.05413.49555 5.40468 1.48798 7.05033.9911 1.64565 2.25118 2.77588 3.77758 3.39068 1.5264.61613 3.08328.9222 4.67063.9222 1.98353 0 3.80805-.46508 5.47358-1.39788 1.66553-.93148 3.01438-2.29093 4.04523-4.0757 1.03218-1.78478 1.5476-3.92598 1.5476-6.42493V88.17611h18.9197v63.54044zm48.18898-.56577c-2.43933-.85198-4.5209-2.07098-6.24738-3.65833-1.72515-1.58603-3.00378-3.47018-3.8372-5.65246h-.89173v9.87656h-18.86007V66.22217h18.978v32.00806h.95268c.55518-1.62578 1.378-3.10315 2.46848-4.43213 1.09048-1.32898 2.43005-2.4592 4.01608-3.392 1.58603-.93148 3.36153-1.65493 5.32518-2.17168 1.96365-.5141 4.0545-.77248 6.27653-.77248 4.87866 0 9.05241 1.1501 12.52391 3.4503 3.47018 2.3002 6.12813 5.59283 7.97253 9.87656 1.8444 4.28373 2.7666 9.48039 2.7666 15.58732v7.08081c0 6.06851-.9328 11.26384-2.79708 15.58732s-4.5421 7.63598-8.03083 9.93619c-3.49138 2.3002-7.67573 3.4503-12.55439 3.4503-2.93488 0-5.62198-.42665-8.06131-1.27995zm6.75221-15.20042c1.66685-1.2296 2.93488-2.9945 3.80805-5.29471.87185-2.3002 1.3091-5.05753 1.3091-8.27066v-4.69978c0-3.2913-.43725-6.08838-1.3091-8.38858-.87318-2.3002-2.1518-4.05583-3.8372-5.26556-1.68673-1.20973-3.71795-1.81525-6.09766-1.81525-2.34128 0-4.37383.59493-6.09898 1.7861-1.72515 1.18985-3.05413 2.89513-3.9856 5.11583-.9328 2.22203-1.3992 4.89986-1.3992 8.03216v6.12813c0 2.89513.48628 5.43383 1.45883 7.61478.97123 2.18228 2.32008 3.87828 4.04523 5.08668 1.72515 1.21105 3.7577 1.81525 6.09766 1.81525s4.34335-.6148 6.00888-1.8444zm51.81948 13.59451c-4.5421-2.24058-8.07058-5.59283-10.58941-10.05411-2.51883-4.4626-3.77758-9.98521-3.77758-16.57047v-6.06851c0-6.62368 1.31705-12.14629 3.95645-16.56914 2.63675-4.42153 6.17716-7.73403 10.61989-9.93619 4.4414-2.20083 9.35981-3.3019 14.75389-3.3019 5.75051 0 10.80804 1.18985 15.17127 3.57088 4.36323 2.3797 7.77378 5.79953 10.23431 10.26214 2.45788 4.4626 3.68748 9.78779 3.68748 15.97422v7.02118h-39.98059v2.915c0 3.64905 1.10108 6.57466 3.3019 8.77548 2.20215 2.20083 4.98731 3.3019 8.35943 3.3019 1.90403 0 3.61858-.28753 5.14631-.86258 1.5264-.57505 2.7666-1.378 3.71795-2.40885.95268-1.03218 1.50785-2.20215 1.66685-3.51125h17.37209c-.11925 2.14253-.72345 4.42285-1.81393 6.84231-1.0918 2.41945-2.74805 4.69051-4.96876 6.81183-2.22203 2.12265-5.06681 3.8478-8.53698 5.17678-3.4715 1.32765-7.64526 1.9928-12.52391 1.9928-5.98901 0-11.25456-1.12095-15.79667-3.36153zm25.9104-36.32226v-.41605c0-2.41945-.4452-4.54078-1.33825-6.36531-.89305-1.82453-2.1518-3.25288-3.77758-4.28373-1.6271-1.03218-3.53113-1.5476-5.71208-1.5476-2.18228 0-4.09558.51543-5.74123 1.5476-1.64565 1.03085-2.9362 2.4592-3.86768 4.28373-.93148 1.82453-1.39788 3.94585-1.39788 6.36531v.41605h21.8347zm33.82199-25.0465h18.97932v10.05411h.89305c.39618-1.46678 1.18985-3.04353 2.3797-4.73026 1.18985-1.6854 2.8355-3.1429 4.93828-4.3725 2.10145-1.2296 4.67991-1.8444 7.73403-1.8444 1.34753 0 2.47775.03975 3.39068.11925s1.6854.21863 2.3214.41605v16.12394c-.67575-.2385-1.64698-.42665-2.91633-.56578-1.26935-.1378-2.61688-.20803-4.04523-.20803-3.25288 0-5.92938.58565-8.03216 1.7543-2.10278 1.1713-3.64905 2.81695-4.64016 4.93828-.99243 2.12265-1.48798 4.59246-1.48798 7.40808v34.44739h-19.51462V88.17611zm53.51548 0h18.3844v11.00546h.95135c.55518-1.62578 1.537-3.36153 2.94548-5.20461 1.40715-1.8444 3.39068-3.43043 5.94926-4.76073 2.55858-1.32765 5.82073-1.9928 9.78779-1.9928 6.38518 0 11.48246 1.8656 15.28919 5.59283 3.80805 3.72855 5.71208 9.36114 5.71208 16.89642v42.00387h-18.97932v-36.94634c0-3.01438-.47568-5.37421-1.42703-7.08081-.95268-1.70395-2.18228-2.92428-3.6888-3.65833-1.50785-.73405-3.11508-1.10108-4.81903-1.10108-2.18228 0-4.11545.5459-5.80086 1.63638-1.68673 1.0918-2.99583 2.65795-3.9273 4.69978-.9328 2.04315-1.39788 4.49175-1.39788 7.34846v35.10194h-18.97932V88.17612zm88.4677 61.36876c-4.5421-2.24058-8.07058-5.59283-10.58941-10.05411-2.51883-4.4626-3.77758-9.98521-3.77758-16.57047v-6.06851c0-6.62368 1.31705-12.14629 3.95645-16.56914 2.63675-4.42153 6.17716-7.73403 10.61989-9.93619 4.4414-2.20083 9.35981-3.3019 14.75389-3.3019 5.75051 0 10.80804 1.18985 15.17127 3.57088 4.36323 2.3797 7.77378 5.79953 10.23431 10.26214 2.45788 4.4626 3.68748 9.78779 3.68748 15.97422v7.02118h-39.98059v2.915c0 3.64905 1.10108 6.57466 3.3019 8.77548 2.20215 2.20083 4.98731 3.3019 8.35943 3.3019 1.90403 0 3.61858-.28753 5.14631-.86258 1.5264-.57505 2.7666-1.378 3.71795-2.40885.95268-1.03218 1.50785-2.20215 1.66685-3.51125h17.37209c-.11925 2.14253-.72345 4.42285-1.81393 6.84231-1.0918 2.41945-2.74805 4.69051-4.96876 6.81183-2.22203 2.12265-5.06681 3.8478-8.53698 5.17678-3.4715 1.32765-7.64526 1.9928-12.52391 1.9928-5.98901 0-11.25456-1.12095-15.79667-3.36153zm25.9104-36.32226v-.41605c0-2.41945-.4452-4.54078-1.33825-6.36531s-2.1518-3.25288-3.77758-4.28373c-1.6271-1.03218-3.53113-1.5476-5.71208-1.5476-2.18228 0-4.09558.51543-5.74123 1.5476-1.64565 1.03085-2.9362 2.4592-3.86768 4.28373s-1.39788 3.94585-1.39788 6.36531v.41605h21.8347zm38.99877-39.80172h18.32477v15.70657h13.92179v14.21992h-13.92179v26.95053c0 2.81695.70358 4.77001 2.11205 5.86048 1.40715 1.0918 3.55895 1.63638 6.45541 1.63638 1.1501 0 2.24985-.03048 3.3019-.08878 1.05073-.05963 1.85368-.10998 2.40885-.14973v13.62499c-.71418.11925-2.05243.27825-4.01608.47568-1.96233.19875-4.05583.29813-6.27653.29813-5.39408 0-9.76659-.6042-13.11884-1.81525-3.35225-1.20973-5.79158-3.16278-7.31798-5.86048-1.5264-2.69638-2.2896-6.24606-2.2896-10.64904v-30.28291h-9.69769V89.12747h10.11374V73.4209zm58.89896 76.12398c-4.5421-2.24058-8.07058-5.59283-10.58941-10.05411-2.51883-4.4626-3.77758-9.98521-3.77758-16.57047v-6.06851c0-6.62368 1.31705-12.14629 3.95645-16.56914 2.63675-4.42153 6.17716-7.73403 10.61989-9.93619 4.4414-2.20083 9.35981-3.3019 14.75389-3.3019 5.75051 0 10.80804 1.18985 15.17127 3.57088 4.36323 2.3797 7.77378 5.79953 10.23431 10.26214 2.45788 4.4626 3.68748 9.78779 3.68748 15.97422v7.02118h-39.98059v2.915c0 3.64905 1.10108 6.57466 3.3019 8.77548 2.20215 2.20083 4.98731 3.3019 8.35943 3.3019 1.90403 0 3.61858-.28753 5.14631-.86258 1.5264-.57505 2.7666-1.378 3.71795-2.40885.95268-1.03218 1.50785-2.20215 1.66685-3.51125h17.37209c-.11925 2.14253-.72345 4.42285-1.81393 6.84231-1.0918 2.41945-2.74805 4.69051-4.96876 6.81183-2.22203 2.12265-5.06681 3.8478-8.53698 5.17678-3.4715 1.32765-7.64526 1.9928-12.52391 1.9928-5.98901 0-11.25456-1.12095-15.79667-3.36153zm25.9104-36.32226v-.41605c0-2.41945-.4452-4.54078-1.33825-6.36531-.89305-1.82453-2.1518-3.25288-3.77758-4.28373-1.6271-1.03218-3.53113-1.5476-5.71208-1.5476-2.18228 0-4.09558.51543-5.74123 1.5476-1.64565 1.03085-2.9362 2.4592-3.86768 4.28373s-1.39788 3.94585-1.39788 6.36531v.41605h21.8347zm35.10194-17.69937c2.47775-2.95475 5.75051-5.10656 9.81694-6.45541 4.0651-1.34753 8.45748-2.02328 13.17714-2.02328 4.87866 0 9.22201.71418 13.03006 2.14253 3.80805 1.42835 6.79196 3.56028 8.95436 6.39578 2.16108 2.8355 3.24228 6.35603 3.24228 10.56026h-16.53999c-.11925-1.1501-.52603-2.2313-1.219-3.24228-.6943-1.0123-1.67613-1.8444-2.94548-2.49895-1.26935-.65455-2.87658-.98183-4.81903-.98183-2.73745 0-4.84023.59493-6.30701 1.78478s-2.20083 2.73745-2.20083 4.64016c0 1.4681.55518 2.64868 1.66553 3.5404 1.11035.89305 2.52943 1.60723 4.25458 2.14253 1.72515.5353 3.55895.95135 5.50273 1.24948 1.94245.2968 3.74843.56445 5.41396.80295 3.88755.63468 7.27823 1.65625 10.17469 3.0634 2.8938 1.40848 5.14631 3.3231 6.75221 5.74123 1.6059 2.42078 2.40885 5.51333 2.40885 9.28164 0 4.40298-1.11035 8.19116-3.33105 11.36321-2.22203 3.1747-5.44443 5.61403-9.66854 7.31798-4.2241 1.70528-9.37041 2.55858-15.43892 2.55858-5.83001 0-10.74841-.82415-14.75389-2.46848-4.0068-1.64565-7.05033-3.9167-9.13323-6.81316-2.0829-2.8938-3.12303-6.22618-3.12303-9.99449h18.38307c.159 1.3091.6148 2.47908 1.36873 3.50993.7526 1.03218 1.81525 1.83513 3.18265 2.41018 1.36873.57505 3.02498.86258 4.96876.86258 2.18095 0 3.94585-.28753 5.29471-.86258 1.34753-.57505 2.33995-1.36873 2.97463-2.38103.63468-1.01098.95268-2.11205.95268-3.3019 0-1.8232-.75393-3.18265-2.26178-4.07438-1.50785-.89305-3.4503-1.56748-5.83001-2.02328s-4.89986-.94208-7.55648-1.4575c-3.6888-.71418-7.05961-1.7649-10.11374-3.1535-3.05413-1.38728-5.48418-3.35093-7.28883-5.88963-1.80465-2.5387-2.70698-5.86976-2.70698-9.99581 0-4.87866 1.2402-8.79536 3.71928-11.75011z" class="cls-2"/><g><path d="M650.89639 311.36479H635.2709l16.82422-54.5498h19.82178l16.70459 54.5498h-16.82422l-2.67773-10.91016h-15.46582l-2.75732 10.91016zm10.98975-41.24219h-.79932l-4.75537 19.14258h10.19043l-4.63574-19.14258zm57.57861 41.24219h-15.78564v-54.5498h15.78564v54.5498zm73.23633-15.94531v15.74512h-13.46729v-15.74512h-14.98633v-13.02832h14.98633v-15.54492h13.46729v15.54492h15.02637v13.02832h-15.02637zm108.04394 15.94531h-15.78516V290.2642h-16.98438v21.10059h-15.78564v-54.5498h15.78564v20.86133h16.98438v-20.86133h15.78516v54.5498zm44.15137-54.5498c3.25049 0 6.16748.54004 8.75195 1.61914 2.58398 1.07812 4.66211 2.53711 6.23438 4.37598 1.57178 1.83789 2.77051 3.92285 3.59668 6.25391.82568 2.33105 1.23877 4.8291 1.23877 7.49316 0 2.69141-.41943 5.19531-1.25879 7.5127-.83936 2.31836-2.06494 4.37598-3.67676 6.1748-1.61182 1.79785-3.70996 3.20996-6.29395 4.23535-2.58447 1.02637-5.51514 1.53906-8.79199 1.53906h-8.43213v15.3457h-15.74561v-54.5498h24.37744zm3.87646 19.74219c0-2.55762-.71924-4.5293-2.15771-5.91504-1.43896-1.38477-3.38379-2.07812-5.83447-2.07812h-4.55615v15.98535h4.55615c2.45068 0 4.39551-.69922 5.83447-2.09766 1.43848-1.39844 2.15771-3.36328 2.15771-5.89453zm46.26905 4.91504v5.35547c0 4.07617.74561 7.2002 2.23779 9.37109 1.4917 2.17188 3.60986 3.25684 6.35449 3.25684 2.50391 0 4.46191-.85938 5.87451-2.57715 1.41162-1.71875 2.14404-3.93652 2.19775-6.6543h14.94629v2.19824c-.02686 3.94336-1.03271 7.43262-3.01709 10.4707-1.98535 3.03711-4.72266 5.36816-8.2124 6.99316-3.49072 1.625-7.45996 2.4375-11.90918 2.4375-7.83252 0-13.90088-2.29102-18.20312-6.87305-4.30273-4.58203-6.4541-10.83008-6.4541-18.74316v-5.23535c0-7.91211 2.14453-14.15332 6.43408-18.72266 4.28906-4.56836 10.36377-6.85352 18.22314-6.85352 4.44922 0 8.41846.81934 11.90918 2.45801 3.48975 1.63867 6.22705 3.97656 8.2124 7.01367 1.98438 3.03711 2.99023 6.55371 3.01709 10.5498v2.1582h-14.94629c-.05371-2.74414-.78613-4.98145-2.19775-6.71387-1.4126-1.73145-3.37061-2.59766-5.87451-2.59766-2.74463 0-4.86279 1.09277-6.35449 3.27734-1.49219 2.18457-2.23779 5.32812-2.23779 9.43066zm74.91455-24.65723h23.05908c4.31592 0 8.07861.63379 11.28955 1.89844 3.20996 1.26562 5.80762 3.09082 7.79248 5.47461 1.98438 2.38477 3.46338 5.20898 4.43604 8.47266.97217 3.26367 1.4585 6.97363 1.4585 11.12988 0 4.20996-.49951 7.98633-1.49854 11.3291-.99902 3.34375-2.49756 6.23438-4.49561 8.67188-1.99854 2.43848-4.60254 4.30957-7.81299 5.61523-3.21094 1.30566-6.93359 1.95801-11.16943 1.95801h-23.05908V256.815zm15.78564 12.22852v30.09277h4.47607c4.10205 0 7.05957-1.21191 8.87158-3.63672 1.81152-2.42383 2.71729-6.18066 2.71729-11.26953 0-5.11523-.9126-8.9248-2.7373-11.42969-1.8252-2.50391-4.77539-3.75684-8.85156-3.75684h-4.47607zm58.41846 42.32128h-15.62549l16.82422-54.5498h19.82178l16.70459 54.5498h-16.82422l-2.67773-10.91016h-15.46582l-2.75732 10.91016zm10.98975-41.24219h-.79932l-4.75537 19.14258h10.19043l-4.63574-19.14258zm65.61132 41.24219h-15.78516v-17.14453l-18.30322-37.40527h17.18408l8.9917 21.74023h.59961l9.07129-21.74023h16.54492l-18.30322 36.92578v17.62402z" class="cls-1"/></g><g><path d="M609.88907 460.68608h-12.93701v-48.51562h10.6626l17.30908 24.91602h.56836v-24.91602h12.90186v48.51562H627.8383l-17.41602-25.30566h-.5332v25.30566zm89.20361-21.68066c0 6.94238-1.96094 12.43457-5.88184 16.47363-3.92188 4.04004-9.47217 6.05957-16.65186 6.05957-7.15625 0-12.70605-2.02539-16.65137-6.07715s-5.91797-9.53711-5.91797-16.45605v-5.01172c0-6.98926 1.97266-12.51074 5.91797-16.5625s9.49512-6.07812 16.65137-6.07812c7.17969 0 12.72998 2.03223 16.65186 6.0957 3.9209 4.06445 5.88184 9.5791 5.88184 16.54492v5.01172zm-14.35889-5.18945c0-3.625-.72852-6.40918-2.18604-8.35254-1.45703-1.94238-3.45361-2.91406-5.98877-2.91406-2.53564 0-4.53125.97168-5.98877 2.91406-1.45703 1.94336-2.18604 4.72754-2.18604 8.35254v5.26074c0 3.625.72266 6.40332 2.16846 8.33398 1.44482 1.93164 3.44727 2.89746 6.00635 2.89746s4.56104-.96582 6.00684-2.89746c1.44482-1.93066 2.16797-4.70898 2.16797-8.33398v-5.26074zm51.77832-21.64551c6.06543 0 10.72168 1.48145 13.96826 4.44336 3.24609 2.96191 4.86914 6.97852 4.86914 12.04883 0 1.84766-.29639 3.58984-.88867 5.22461s-1.35059 3.00977-2.27441 4.12305c-.92432 1.11426-1.83643 2.02539-2.73682 2.73633-.90088.71094-1.77734 1.25684-2.63037 1.63477l9.56104 18.30469h-15.46094l-7.89014-16.49121h-4.54932v16.49121H714.725v-48.51562h21.78711zm-8.03223 22.53418h5.86426c1.91943 0 3.48877-.52051 4.70947-1.56348 1.21973-1.04297 1.83008-2.54688 1.83008-4.51465 0-1.99023-.62793-3.53613-1.8833-4.6377-1.25635-1.10156-2.79639-1.65234-4.62061-1.65234h-5.8999v12.36816zm64.96387 25.98144h-14.07471v-37.21289h-12.54639v-11.30273h39.16748v11.30273h-12.54639v37.21289zm69.3711 0h-14.03906v-18.7666h-15.10547v18.7666h-14.03906v-48.51562h14.03906v18.55371h15.10547v-18.55371h14.03906v48.51562zm50.34863 0h-13.89697l14.96338-48.51562h17.62891l14.85693 48.51562h-14.96338l-2.38135-9.70312h-13.75488l-2.45264 9.70312zm9.77441-36.67969h-.71094l-4.22949 17.02441h9.06299l-4.12256-17.02441zm49.60987 36.67969h-12.4043v-48.51562h14.60791l10.94727 23.28027h.49756l10.98242-23.28027h14.50146v48.51562H999.0624v-27.90039h-.63965l-8.77881 19.22852h-7.5708l-8.8501-19.22852h-.67529v27.90039zm90.76806-10.87597v10.87598h-34.04932v-48.51562h34.04932v10.87598h-20.15234v8.42383h18.8374v9.88086h-18.8374v8.45898h20.15234zm38.23584-37.63965c6.06543 0 10.72168 1.48145 13.96826 4.44336 3.24609 2.96191 4.86914 6.97852 4.86914 12.04883 0 1.84766-.29639 3.58984-.88867 5.22461s-1.35059 3.00977-2.27441 4.12305c-.92432 1.11426-1.83643 2.02539-2.73682 2.73633-.90088.71094-1.77734 1.25684-2.63037 1.63477l9.56104 18.30469h-15.46094l-7.89014-16.49121h-4.54932v16.49121h-13.75488v-48.51562h21.78711zm-8.03223 22.53418h5.86426c1.91943 0 3.48877-.52051 4.70947-1.56348 1.21973-1.04297 1.83008-2.54688 1.83008-4.51465 0-1.99023-.62793-3.53613-1.8833-4.6377-1.25635-1.10156-2.79639-1.65234-4.62061-1.65234h-5.8999v12.36816zm56.32716 25.98144h-14.03906v-48.51562h14.03906v48.51562zm29.99023-26.58594v4.7627c0 3.62598.66309 6.4043 1.99072 8.33496 1.32666 1.93164 3.21045 2.89648 5.65088 2.89648 2.22705 0 3.96875-.76367 5.2251-2.29199 1.25537-1.52832 1.90674-3.50098 1.95459-5.91797h13.29297v1.95508c-.02393 3.50684-.91846 6.61035-2.68359 9.31152-1.76562 2.70117-4.2002 4.77539-7.30371 6.21973-3.10449 1.44531-6.63477 2.16797-10.5918 2.16797-6.96631 0-12.36328-2.03711-16.18945-6.1123-3.82666-4.0752-5.74023-9.63281-5.74023-16.66992v-4.65625c0-7.03711 1.90723-12.58691 5.72266-16.65137 3.81445-4.06348 9.2168-6.0957 16.20703-6.0957 3.95703 0 7.4873.72949 10.5918 2.18652 3.10352 1.45703 5.53809 3.53613 7.30371 6.2373 1.76514 2.70117 2.65967 5.8291 2.68359 9.38281v1.91992h-13.29297c-.04785-2.44043-.69922-4.43066-1.95459-5.97168-1.25635-1.54004-2.99805-2.30957-5.2251-2.30957-2.44043 0-4.32422.97168-5.65088 2.91406-1.32764 1.94336-1.99072 4.73926-1.99072 8.3877zm53.271 26.58594h-13.89697l14.96338-48.51562h17.62891l14.85693 48.51562h-14.96338l-2.38135-9.70312h-13.75488l-2.45264 9.70312zm9.77441-36.67969h-.71094l-4.22949 17.02441h9.06299l-4.12256-17.02441z" class="cls-2"/></g></svg>