<svg xmlns="http://www.w3.org/2000/svg" role="img" viewBox="1.34 27.59 398.58 180.83"><title>KCCNC NA23_Web_logo-color.svg</title><defs><clipPath id="clippath"><path d="M149.75 35.963H150.427V168.325H149.75z" class="cls-2"/></clipPath><clipPath id="clippath-1"><path d="M318.509 194.071H392.438V194.748H318.509z" class="cls-2"/></clipPath><clipPath id="clippath-2"><path d="M9.151 194.071H82.143V194.748H9.151z" class="cls-2"/></clipPath><style>.cls-2,.cls-3{fill:#4f1870}.cls-3{fill-rule:evenodd}</style></defs><g><path d="m110.08661,149.07288c.71548-.19513,1.56103-.39026,2.66676-.58538,1.11756-.18604,2.24936-.2731,3.38223-.26017,1.01745-.04437,2.03378.11028,2.99198.4553.73609.28488,1.38591.75544,1.88624,1.36591.47796.61138.81149,1.3229.97564,2.08137.21207.87319.32122,1.7682.32521,2.66676v8.06532h-3.96762v-7.61002c.0666-.94033-.11274-1.88179-.52035-2.7318-.32522-.52035-.97565-.78052-1.95129-.78051-.30494-.00852-.60997.01328-.9106.06505-.32521,0-.58538.06505-.84556.06505v10.99225h-4.03266v-13.78912Zm-7.41489,6.56934c.04383-1.02375-.20431-2.03885-.71548-2.92693-.93509-1.18543-2.65412-1.38838-3.83955-.45328-.16834.13279-.32049.28493-.45328.45328-.5638.86827-.83711,1.89323-.78051,2.92693-.04661,1.05312.22541,2.09582.78051,2.99198.84522,1.18543,2.4914,1.46122,3.67684.616.23808-.16975.44625-.37793.616-.616.51067-.91194.75835-1.94767.71548-2.99198m4.09771,0c.02284,1.03747-.13113,2.07124-.4553,3.05702-.30907.89083-.79589,1.70959-1.43094,2.40659-1.30209,1.40706-3.15824,2.16856-5.07335,2.08137-.97774.00279-1.9477-.17356-2.86188-.52035-.83812-.36013-1.59146-.8919-2.21146-1.56103-.63956-.69365-1.12698-1.5134-1.43094-2.40659-.6938-1.97896-.6938-4.13507,0-6.11403.31975-.86635.80585-1.6618,1.43094-2.34155.62271-.64986,1.37654-1.15981,2.21146-1.49599.88425-.37179,1.83806-.54924,2.79685-.52035.95662-.003,1.90532.1735,2.79685.52035.82202.35998,1.57145.86695,2.21146,1.49599.6251.67975,1.11121,1.4752,1.43094,2.34155.39954.96902.59867,2.00894.58538,3.05702m-21.91946,7.54498c-3.05702,0-5.39856-.84556-6.95959-2.53667-1.62607-1.69112-2.40659-4.09771-2.40659-7.21977-.01215-1.41918.23018-2.82905.71548-4.16274.88048-2.31457,2.73668-4.12319,5.07335-4.94327,1.2279-.45243,2.52913-.67298,3.83753-.65043.72014-.00561,1.43909.05976,2.14642.19513.65043.13008,1.23581.26017,1.69112.39026.41948.13046.83196.28243,1.23581.4553.25958.08702.50178.21913.71548.39026l-1.23581,3.38223c-.63444-.34863-1.31252-.61111-2.01633-.78051-.85031-.21631-1.72432-.32556-2.60172-.32521-.64203.0075-1.27877.11729-1.88624.32521-.62084.2048-1.18007.5627-1.62607,1.04069-.49278.53469-.88893,1.15092-1.17077,1.8212-.29892.87988-.4527,1.80254-.4553,2.7318-.01714.81005.07031,1.61892.26017,2.40659.18343.7.49192,1.36107.9106,1.95129.46125.55263,1.03867.99678,1.69112,1.30086.78057.331,1.62435.48643,2.47163.4553.54438-.00571,1.0877-.04917,1.62607-.13008.44129-.04254.87714-.12971,1.30086-.26017.33148-.08864.65729-.19723.97564-.32521.24788-.13582.50953-.24484.78051-.32521l1.17077,3.38223c-.78312.46875-1.64128.79881-2.53667.97564-1.20624.33562-2.45585.48907-3.70744.4553m-16.0656-8.91088c-.00187-.33472-.06812-.66595-.19513-.97564-.11224-.30142-.26545-.58594-.4553-.84556-.21492-.26598-.48014-.487-.78051-.65043-.36966-.16194-.76732-.25031-1.17077-.26017-.40671-.02194-.81165.06803-1.17077.26017-.30973.11842-.5801.32121-.78051.58538-.22486.27112-.40092.57923-.52035.9106-.12476.33626-.21202.68528-.26017,1.04069h5.33352v-.06504Zm-9.43121,1.49599c-.01853-1.13297.18018-2.259.58539-3.31719.33286-.89043.86712-1.69182,1.56103-2.34155.61326-.6149,1.34295-1.10136,2.14642-1.43094.80994-.30802,1.67017-.46242,2.53668-.4553,1.79-.10256,3.53943.55939,4.81318,1.8212,1.17077,1.23582,1.75616,3.05702,1.75616,5.4636v.78051c0,.26017-.06505.52035-.06505.71548h-9.17105c.04065.80491.47969,1.53664,1.17077,1.95129.82309.49565,1.77142.74403,2.7318.71548.72002.00257,1.43867-.06276,2.14642-.19513.60306-.10698,1.19216-.28153,1.75616-.52035l.52035,3.25215c-.27295.13025-.55567.23899-.84556.32521-.40313.12427-.8168.21136-1.23582.26017-.4553.06505-.9106.13008-1.43094.19513-.49683.05275-.99647.07448-1.49599.06505-1.13389.0306-2.26226-.16852-3.31719-.58538-.89043-.33286-1.69182-.86712-2.34154-1.56103-.64988-.64946-1.12046-1.45617-1.3659-2.34155-.32992-.89441-.48451-1.84398-.4553-2.79685m-2.66676-.06505c.00218,1.04123-.17381,2.07515-.52035,3.05702-.31974.86635-.80585,1.6618-1.43094,2.34155-.65926.66694-1.45929,1.17808-2.34154,1.49599-1.00298.35187-2.05918.52791-3.12206.52035-.52115.00822-1.04236-.0135-1.56103-.06505l-1.56103-.19513c-.50365-.05507-1.00331-.14196-1.49599-.26017-.4553-.13008-.9106-.19513-1.23582-.32521v-19.90314l4.03266-.65043v7.08967c.46379-.19046.94237-.34273,1.43094-.4553.51255-.1105,1.03726-.15423,1.56103-.13008.91508-.00996,1.82255.1671,2.66676.52035.76661.32539,1.43802.84014,1.95129,1.49599.54262.69455.9407,1.49072,1.17077,2.34155.32408,1.00819.47795,2.06331.4553,3.12206m-4.09771-.13008c0-2.60172-.97564-3.90258-2.86189-3.90258-.4147.01114-.82788.05463-1.23582.13008-.33386.10733-.65986.23773-.97564.39026v7.34985c.25558.05979.51856.0817.78051.06505.32521,0,.65043.06505.97564.06505.95607.06303,1.88143-.35094,2.47163-1.10573.58629-.88506.88187-1.93097.84556-2.99198m-13.13867,6.76446c-.71547.19513-1.56103.39026-2.66676.58538-1.11756.18604-2.24936.2731-3.38223.26017-1.01745.04437-2.03377-.11028-2.99197-.4553-.73609-.28488-1.38592-.75544-1.88625-1.36591-.46592-.6187-.79815-1.32748-.97564-2.08137-.2161-.87246-.32531-1.76795-.32521-2.66676v-7.93523h3.96762v7.41489c-.05711.96076.12152,1.92092.52034,2.79685.32521.58538.97564.84556,1.95129.84556.30494.00852.60997-.01327.9106-.06505.32521,0,.58539-.06505.84556-.06505v-10.99225h4.03266v13.72407Zm-18.60229.4553c-.39026-.58538-.84556-1.30086-1.3659-2.01633-.52311-.74654-1.08771-1.46314-1.69112-2.14642-.58539-.71548-1.23582-1.36591-1.88625-2.08137-.61757-.62089-1.269-1.20718-1.95129-1.75616v7.93523h-4.22782v-18.73236h4.22779v7.08967c1.10573-1.17077,2.21146-2.34155,3.31719-3.64241,1.10573-1.23581,2.14642-2.40659,3.12206-3.44728h5.00831c-1.30086,1.49599-2.53668,2.99198-3.83753,4.35787-1.30086,1.43094-2.66676,2.79685-4.0977,4.22779,1.58024,1.34288,3.03856,2.82296,4.35788,4.42292,1.45689,1.80336,2.80356,3.69304,4.03266,5.65873h-5.00831l.00003.1301Z" class="cls-2"/><path d="m54.67004,80.06233l-2.34154.52035c0-.32521-.06504-.65043-.06504-.97564-.00772-2.4764.66745-4.907,1.95129-7.02464l4.553,4.03266c.07412.08034.16229.14646.26017.19513-.2796.68549-.45499,1.40898-.52035,2.14642-.13008.06504-.32521.06504-.4553.13008l-3.38224.97564Zm8.84584-13.7891v6.37421c-.63447.19768-1.229.50596-1.75616.9106-.19513-.13008-.39026-.32521-.58539-.4553l-4.61805-3.25215c1.89081-1.888,4.32384-3.13862,6.95959-3.57736m-31.67591,14.6997c2.21146-9.6914,4.0977-17.8868,6.30916-27.5782.97564-4.35788,1.62607-5.52865,5.59369-7.80515,5.46361-3.1871,9.56131-5.46361,15.41517-8.84584,3.6424-2.08137,4.35787-1.95129,4.35787,2.53667v22.50485c-4.07709.49839-7.85104,2.40838-10.66704,5.39856l-1.95129-1.3659c-.24036-.13894-.40702-.37703-.4553-.65043-.18133-.61348-.54414-1.1577-1.04069-1.56103-.91672-.73553-2.25613-.58865-2.99166.32808-.73454.91548-.58917,2.25283.3249,2.98911.29537.26155.65423.44098,1.04069.52034.26017.06504.52035.06504.78051.13009.21061.04656.40969.13504.58539.26017l1.8212,1.62607c-1.99995,2.95699-3.06503,6.4468-3.05702,10.01661,0,.65043.06504,1.30086.13008,1.95129l-3.96762.84556c-.28336-.00834-.56681.01347-.84556.06504l-.58539.19513c-2.60172.52035-5.20343,1.10573-7.87019,1.69112-3.57736.84556-3.70745.13008-2.92693-3.25215m36.29395-8.3255v-6.37421c2.61147.47085,5.02957,1.6912,6.95959,3.51232l-5.0083,3.57736c-.06504.06504-.13008.13008-.19513.13008-.54453-.35985-1.13528-.64428-1.75616-.84556m11.18738,7.47994l-6.24412-1.43094c-.0649-.67463-.24072-1.33392-.52035-1.95129.06505-.06504.13008-.13008.19513-.13008l4.61805-4.09771c1.31238,2.13236,2.01016,4.58583,2.01633,7.08968-.0577.16702-.07986.34426-.06505.52035m-8.13037-34.40771c3.38223,1.62607,5.78882,2.79685,9.17106,4.42292,4.68309,2.2765,9.36618,4.553,14.11431,6.76446,1.17077,5.07335,2.34155,10.1467,3.44728,15.22005.71548,3.05702,1.04069,4.68309,1.75616,7.67507,1.10573,4.74814.97564,5.13839-3.90258,4.03266l-12.03294-2.7318c.05413-.51848.07585-1.03984.06505-1.56103.02581-3.60239-1.06485-7.12433-3.12206-10.08165l1.69112-1.56103c.20383-.17248.4515-.28506.71548-.32521.63468-.04837,1.24309-.27371,1.75616-.65043.91602-.73641,1.06162-2.07596.32521-2.99197-.73641-.91601-2.07596-1.06162-2.99198-.32521h0c-.32639.23985-.5934.55138-.78051.9106-.13008.26017-.19513.4553-.32521.71547-.06925.21168-.20644.39459-.39026.52034l-1.95129,1.3659c-2.82492-2.97823-6.59431-4.8859-10.66704-5.39856v-13.72406c.06504-3.1871.32521-3.57736,3.12206-2.2765m-4.16275,40.97704c-.40742.07888-.8209.1224-1.23582.13008-.39139.01078-.78298-.01098-1.17077-.06504l-.19513.39026-2.86189,5.26848c1.38286.46898,2.83262.71061,4.29283.71547,1.48101-.01016,2.95136-.25156,4.35787-.71547l-2.86189-5.20343c-.13134-.15802-.24073-.33305-.32521-.52035m5.07335-3.44728l6.24412,1.43094c-1.02799,2.52496-2.79679,4.67926-5.07335,6.17908l-2.47163-5.98395c.48801-.49618.92391-1.04105,1.30086-1.62607m-18.79741,1.3659l6.24412-1.43094c.38233.61893.84125,1.18713,1.3659,1.69112l-.19513.39026-2.2765,5.59369c-2.31504-1.50246-4.1096-3.68319-5.13839-6.24412m51.12375,10.99226c-2.99198,3.70744-4.35787,5.46361-7.34985,9.17105-3.38223,4.22779-6.11403,7.67506-9.49627,11.90285-2.40659,3.05702-4.16274,3.12206-8.13037,3.12206h-27.31803c-5.20343,0-5.59369,0-8.78079-4.03266-3.1871-3.96762-5.65873-7.08968-8.78079-11.0573-2.47163-3.12206-3.12206-3.90258-5.59369-7.02464-3.83753-4.81318-4.48796-6.56933,1.49599-7.87019l18.47219-4.16275c1.43555,3.91389,4.16679,7.21892,7.74011,9.36618l-.84556,1.95129c-.09945.2501-.28362.4573-.52035.58539-.57143.30066-1.02842.78049-1.30086,1.3659-.52233,1.05899-.08727,2.3409.97172,2.86322,1.05899.52233,2.3409.08727,2.86322-.97172.00086-.00175.00173-.0035.00258-.00526.17635-.36812.28644-.76444.32521-1.17077.0107-.26186-.01115-.52404-.06504-.78051-.02014-.22481.02504-.45066.13008-.65043l1.04069-1.88625c2.058.77627,4.23971,1.17294,6.43925,1.17077,2.22755.0119,4.43633-.40776,6.50429-1.23582l1.0407,1.88625c.14204.23379.18863.51329.13008.78051-.11131.61925-.02008,1.25789.26016,1.8212.51877,1.06074,1.7992,1.5001,2.85995.98134,1.06074-.51876,1.5001-1.7992.98133-2.85994-.00124-.00254-.00249-.00509-.00375-.00764-.16213-.37485-.40669-.70835-.71548-.97564-.20096-.17324-.41887-.32578-.65043-.4553-.19725-.1111-.33883-.29987-.39026-.52035l-.84556-2.08137c3.57211-2.13173,6.28696-5.44477,7.67507-9.36618l20.35844,4.61805c4.09771,1.10573,3.83753,2.53668,1.49599,5.52865" class="cls-3"/><path d="m68.13393,72.64744v-6.37421c2.61147.47085,5.02957,1.69119,6.95959,3.51232l-5.0083,3.57736c-.06504.06504-.13008.13008-.19513.13008-.54453-.35985-1.13528-.64428-1.75616-.84556m11.18738,7.47994l-6.24412-1.43094c-.0649-.67463-.24072-1.33392-.52035-1.95129.06505-.06504.13008-.13008.19513-.13008l4.61805-4.09771c1.31238,2.13236,2.01016,4.58583,2.01633,7.08968-.0577.16702-.07986.34426-.06505.52035m-8.13037-34.40771c3.38223,1.62607,5.78882,2.79685,9.17106,4.42292,4.68309,2.2765,9.36618,4.553,14.11431,6.76446,1.17077,5.07335,2.34155,10.1467,3.44728,15.22005.71548,3.05702,1.04069,4.68309,1.75616,7.67507,1.10573,4.74814.97564,5.13839-3.90258,4.03266l-12.03294-2.7318c.05413-.51848.07585-1.03984.06505-1.56103.02581-3.60239-1.06485-7.12433-3.12206-10.08165l1.69112-1.56103c.20383-.17248.4515-.28506.71548-.32521.63468-.04837,1.24309-.27371,1.75616-.65043.91602-.73641,1.06162-2.07596.32521-2.99197-.73641-.91601-2.07596-1.06162-2.99198-.32521h0c-.32639.23985-.5934.55138-.78051.9106-.13008.26017-.19513.4553-.32521.71547-.06925.21168-.20644.39459-.39026.52034l-1.95129,1.3659c-2.82492-2.97823-6.59431-4.8859-10.66704-5.39856v-13.72406c.06504-3.1871.32521-3.57736,3.12206-2.2765m.9106,37.52977l6.24412,1.43094c-1.02799,2.52497-2.79679,4.67926-5.07335,6.17908l-2.47163-5.98395c.48801-.49618.92391-1.04105,1.30086-1.62607m-6.30916,9.82148v-6.24412c.4147-.01113.82788-.05462,1.23582-.13008.06158.16482.14944.31857.26017.4553l2.86189,5.20343c-1.40652.4639-2.87686.70531-4.35787.71547m38.6355,2.53668c-2.99198,3.70744-4.35787,5.46361-7.34985,9.17105-3.38223,4.22779-6.11403,7.67506-9.49627,11.90285-2.40659,3.05702-4.16274,3.12206-8.13037,3.12206h-13.59397v-22.30973c2.22755.0119,4.43633-.40776,6.50429-1.23582l1.04069,1.88625c.14204.23379.18863.51329.13008.78051-.11132.61925-.02008,1.25789.26016,1.8212.52299,1.05867,1.80516,1.49293,2.86383.96995,1.05569-.52152,1.49101-1.79844.9737-2.85619-.16212-.37485-.40668-.70835-.71548-.97564-.20097-.17323-.41887-.32577-.65043-.4553-.19725-.1111-.33883-.29987-.39026-.52035l-.84556-2.08137c3.57211-2.13173,6.28696-5.44477,7.67507-9.36618l20.35844,4.61805c3.96762,1.10573,3.70744,2.53668,1.36591,5.52865" class="cls-3"/><path d="m255.32747,94.82707h-10.79713v25.23665h25.17162v-10.79712h-14.37449v-14.43953Zm54.05067.06504v14.37449h-14.30944l-.13009-.13008v10.92721h25.23665v-25.23666h-10.86218l.06507.06505Zm-64.84778-25.3017h10.86218l-.06505-.06504v-14.37449h14.30944l.06505.13009v-10.92721h-25.17162v25.23665Zm50.40827-25.23665v10.79713h14.43954v14.43953h10.79713v-25.23666h-25.23667Z" class="cls-2"/><g opacity=".8"><path d="m293.63775,69.59042l-14.43954-14.43953h15.7404v-10.79712h-25.23665v10.92721l14.37449,14.30944h9.5613Zm-13.00859,25.23665h-9.56132l11.96789,11.9679,2.47162,2.47163h-15.80542v10.79712h25.23665v-10.92721l-7.15472-7.15472-7.1547-7.15472Zm28.74898-25.23666v15.74039l-2.47162-2.47163-11.96789-11.90286v9.56131l7.21977,7.15472,7.15472,7.15472h10.86218v-25.23664h-10.79715Zm-39.67618,14.30943l-14.30944-14.30944h-10.9272v25.23665h10.86218v-15.74038l14.37449,14.37449-.00002-9.56131Z" class="cls-2"/></g><path d="m191.71548,147.57689l-2.73181,3.25215c-1.143-1.4375-2.8489-2.31415-4.6831-2.40659-2.88483.00945-5.2158,2.35573-5.20633,5.24056.00016.05268.00113.10535.0029.158,0,3.12206,2.21146,5.4636,5.20343,5.4636,1.78953-.09885,3.46982-.89232,4.6831-2.21146l2.79684,2.92693c-2.03489,2.06277-4.77959,3.27229-7.67506,3.38223-5.5937,0-9.75644-4.09771-9.75644-9.56131,0-5.39856,4.29284-9.43122,9.95156-9.43122,2.78195.1034,5.42555,1.23968,7.41489,3.1871h.00002Zm2.2765,15.6103v-19.70801h4.61805v19.70801h-4.61805Zm22.89512-7.15472c0,4.42292-3.12205,7.34985-7.80515,7.34985s-7.8702-2.92693-7.8702-7.34985,3.12205-7.28481,7.8702-7.28481c4.68308,0,7.80513,2.86188,7.80513,7.28481h.00002Zm-11.0573.06505c0,2.21146,1.30086,3.70744,3.1871,3.70744s3.1871-1.49599,3.1871-3.70744-1.30086-3.70744-3.1871-3.70744-3.18712,1.49598-3.18712,3.70744h.00002Zm27.51315,7.08967h-4.61805v-2.34155c-.95562,1.66324-2.76794,2.64491-4.6831,2.53667-3.12205,0-5.13839-2.14642-5.13839-5.4636v-9.04096h4.61805v7.7401c0,1.69112.9106,2.7318,2.4066,2.7318,1.75617,0,2.79684-1.43094,2.79684-3.38223v-7.08967h4.61805v14.30944Zm18.08193,0h-4.61805v-1.88624c-1.02038,1.33473-2.61295,2.10689-4.29284,2.08137-4.03267,0-6.69941-2.99198-6.69941-7.41489,0-4.35787,2.60172-7.28481,6.56934-7.28481,1.7258-.07043,3.37716.70669,4.42291,2.08137v-7.28481h4.61805v19.708Zm-4.61805-7.08967c0-2.21146-1.30086-3.70744-3.1871-3.70744s-3.1871,1.49599-3.1871,3.70744,1.30086,3.77249,3.1871,3.77249c1.95129-.06505,3.1871-1.56104,3.1871-3.77249Zm21.46419,7.08967l-8.58567-11.44756v11.44756h-4.42291v-18.60228h4.16274l8.58567,11.5126v-11.5126h4.42291v18.60228h-4.16274Zm20.55357-9.36618v9.36618h-4.48796v-1.62607c-.9106,1.23581-2.47162,1.88624-4.35788,1.88624-3.05703,0-4.94327-1.88624-4.94327-4.48796,0-2.7318,1.95129-4.29284,5.52865-4.35787h3.77248v-.19513c0-1.43094-.9106-2.2765-2.79684-2.2765-1.49598.09237-2.95708.49086-4.29284,1.17077l-1.30086-3.05702c2.05582-1.04816,4.32688-1.60479,6.63439-1.62607,3.96762.06504,6.24412,2.01632,6.24412,5.20343Zm-4.48796,4.553v-1.30086h-2.92693c-1.36591,0-2.08138.4553-2.08138,1.56103,0,1.04069.71548,1.69112,2.01633,1.69112,1.32043.08789,2.54002-.7075,2.99198-1.95129Zm16.91116,4.09771c-1.18005.63439-2.49778.96941-3.83753.97564-2.79684,0-4.74813-1.56103-4.74813-4.553v-6.30916h-2.01633v-2.99198h2.01633v-3.96762h4.553v3.96762h3.77248v3.05702h-3.77248v5.5937c0,1.10573.45531,1.62607,1.30086,1.56103.60692-.0514,1.20072-.20534,1.75617-.4553l.97562,3.12206Zm7.02463-17.69167c.0524,1.31172-.96848,2.41754-2.28019,2.46995-.0421.00169-.08426.00224-.1264.00169-1.34709-.01787-2.42462-1.12439-2.40675-2.47146.01755-1.32188,1.08488-2.38922,2.40675-2.40675,1.2612-.06793,2.33867.8994,2.4066,2.1606.00441.08194.00441.16405,0,.24598h0Zm-4.74813,18.40716v-14.30944h4.553v14.30944h-4.553Zm11.70773,0l-5.39855-14.30944h4.74813l3.05703,10.1467,3.12205-10.1467h4.553l-5.39855,14.30944h-4.68312.00002Zm25.30167-5.91891h-10.08165c.3295,1.59277,1.75656,2.71795,3.38224,2.66676,1.28839-.02528,2.5197-.53638,3.44727-1.43094l2.4066,2.34155c-1.61571,1.71002-3.89356,2.6354-6.2441,2.53667-4.6831,0-7.61003-2.92693-7.61003-7.28481,0-4.42292,3.05703-7.34985,7.47994-7.34985,5.00831,0,7.47994,3.31719,7.21975,8.52063h0Zm-4.42291-2.47164c.12712-1.48515-.97382-2.79214-2.45896-2.91925-.11235-.00962-.22521-.01219-.33788-.00768-1.62607,0-2.66674,1.17077-2.99196,2.92693h5.7888Zm23.15527-7.21977l-2.73181,3.25215c-1.14298-1.4375-2.84888-2.31415-4.6831-2.40659-2.88485.00945-5.21578,2.35573-5.20633,5.24056.00016.05268.00115.10535.0029.158,0,3.12206,2.21148,5.4636,5.20343,5.4636,1.78955-.09885,3.46982-.89231,4.6831-2.21146l2.79684,2.92693c-2.03489,2.06277-4.77957,3.2723-7.67506,3.38223-5.59368,0-9.75644-4.09771-9.75644-9.56131,0-5.39856,4.29282-9.43122,9.95156-9.43122,2.77905.11617,5.41829,1.25057,7.41491,3.1871Zm16.06561,8.45558c0,4.42292-3.12205,7.34985-7.80515,7.34985s-7.87018-2.92693-7.87018-7.34985,3.12205-7.28481,7.87018-7.28481c4.6831,0,7.80515,2.86188,7.80515,7.28481Zm-10.99227.06505c0,2.21146,1.30086,3.70744,3.18712,3.70744s3.18712-1.49599,3.18712-3.70744-1.30086-3.70744-3.18712-3.70744-3.18708,1.49598-3.18708,3.70744h-.00004Zm28.09855-1.95129v9.04096h-4.553v-7.7401c0-1.69112-.97564-2.7318-2.53669-2.7318-1.6911,0-2.73181,1.17077-2.92693,2.92693v7.61002h-4.61803v-14.30944h4.61803v2.34155c1.01161-1.67081,2.8631-2.64658,4.81319-2.53667,3.12205-.06505,5.20343,2.08137,5.20343,5.39856h0Z" class="cls-2"/><g id="SVGID-3"><path d="m149.7628,35.96323h.65043v132.36235h-.65043V35.96323Z" class="cls-2"/></g><path d="m149.763,35.96323h.65043v132.36235h-.65043V35.96323Z" class="cls-2"/><g><path d="m149.763,35.96323h.65043v132.36235h-.65043V35.96323Z" class="cls-2"/><g><path d="M149.75 35.963H150.427V168.325H149.75z" class="cls-2"/><g clip-path="url(#clippath)"><path d="m149.7628,35.96323h.65043v132.36235h-.65043V35.96323Z" class="cls-2"/></g></g></g></g><g><path d="m318.50906,194.08437h73.92886v.65044h-73.92886v-.65044Z" class="cls-2"/><g><path d="M318.509 194.071H392.438V194.748H318.509z" class="cls-2"/><g clip-path="url(#clippath-1)"><path d="m318.50906,194.08437h73.92886v.65042h-73.92886v-.65042Z" class="cls-2"/></g></g></g><g><path d="m9.15083,194.08437h72.99225v.65044H9.15083v-.65044Z" class="cls-2"/><g><path d="M9.151 194.071H82.143V194.748H9.151z" class="cls-2"/><g clip-path="url(#clippath-2)"><path d="m9.15083,194.08437h72.99225v.65042H9.15083v-.65042Z" class="cls-2"/></g></g></g><path d="m95.63559,186.14824h3.14035l7.02356,9.42106v-9.42106h3.14035v14.5775h-3.14035l-7.02356-9.42106v9.42106h-3.14035v-14.57749h0Zm15.87168,9.08186c0-3.16195,2.69477-5.72937,5.98376-5.72937s5.98376,2.56742,5.98376,5.72937c0,3.1613-2.69477,5.75034-5.98376,5.75034s-5.98376-2.58901-5.98376-5.75033h0Zm8.97548,0c0-1.71881-1.33675-3.11939-2.99172-3.11939-1.65529,0-3.01332,1.40058-3.01332,3.11939s1.35803,3.14034,3.01332,3.14034c1.65497,0,2.99172-1.42154,2.99172-3.14035h0Zm12.03104-5.72936v2.60997c-2.29143,0-3.75585,1.31547-3.75585,3.3741v5.24092h-3.0978v-10.97028h3.0978v2.058c.72157-1.42154,2.0796-2.31271,3.75585-2.31271h0Zm8.59373,10.52499c-.63646.57294-1.63401.95468-2.5039.95468-1.95224,0-3.31027-1.37962-3.31027-3.35251v-5.36858h-1.50634v-2.5039h1.50634v-3.01332h2.99204v3.01332h2.37654v2.5039h-2.37654v4.88012c0,.72157.44558,1.23099,1.01852,1.23099.4243,0,.84861-.14863,1.06108-.36078l.74253,2.01608Zm12.4763-6.28133v6.98133h-2.97044v-6.32326c0-1.35803-.8702-2.29175-2.10087-2.29175-1.29419,0-2.29143.93372-2.29143,2.12215v6.49286h-3.09811v-14.8322h3.09811v5.19899c.67901-.97628,1.8884-1.59177,3.30995-1.59177,2.37654,0,4.0528,1.73977,4.0528,4.24367h0Zm18.4175,4.4774h-6.32326l-1.01852,2.5039h-3.50114l5.94152-14.57749h3.50114l5.9412,14.57749h-3.5221l-1.01884-2.5039Zm-.99724-2.44038l-2.16439-5.32602-2.16407,5.32602h4.32847Zm24.72012-2.03703v7.00227h-2.97076v-6.4719c0-1.27291-.80605-2.16407-1.95192-2.16407-1.23067,0-2.10087.82765-2.10087,1.99448v6.64149h-2.99172v-6.4719c0-1.27291-.78509-2.16407-1.93096-2.16407-1.25195,0-2.12183.82765-2.12183,1.99448v6.62053h-3.09811v-10.97028h3.09811v1.44314c.53038-1.0398,1.61242-1.69785,2.97044-1.69785,1.71881,0,3.16163.99724,3.75585,2.54646.31823-1.52762,1.61273-2.54646,3.28899-2.54646,2.29175,0,4.0528,1.76137,4.0528,4.24367h0Zm10.63045,3.75585l1.73977,1.78233c-.97564,1.01884-2.86405,1.69785-4.47678,1.69785-3.26803,0-5.85672-2.39782-5.85672-5.77192,0-3.30995,2.48262-5.70777,5.68713-5.70777,3.43699,0,5.51658,2.48294,5.51658,6.55701h-8.25423c.27599,1.48506,1.29451,2.52486,2.80117,2.52486,1.0182,0,2.14311-.4459,2.84309-1.08235Zm-5.62297-3.28899h5.26219c-.25471-1.35803-1.12428-2.31271-2.5039-2.31271-1.37899,0-2.41878.91213-2.75829,2.31271Zm17.18715-4.71052v2.60997c-2.29175,0-3.75585,1.31547-3.75585,3.3741v5.24092h-3.09843v-10.97028h3.09843v2.058c.72157-1.42154,2.0796-2.31271,3.75585-2.31271h0Zm2.14248-2.94917c0-.8702.74253-1.65529,1.69785-1.65529.91213,0,1.65466.78509,1.65466,1.65529,0,.93309-.74253,1.69721-1.65466,1.69721-.95532,0-1.69785-.76413-1.69785-1.69721Zm.12704,3.20387h3.09843v10.97029h-3.09843v-10.97028h0Zm5.28347,5.47465c0-3.11939,2.75861-5.72937,6.00504-5.72937,1.76137,0,3.24706.72157,4.30782,1.86744l-2.05863,1.76137c-.55134-.61549-1.42154-1.01884-2.27015-1.01884-1.61273,0-2.97076,1.42154-2.97076,3.0978,0,1.71882,1.35803,3.16196,2.99172,3.16196.84924,0,1.74041-.4243,2.31334-1.06076l2.058,1.73977c-1.08235,1.18843-2.56742,1.93096-4.41326,1.93096-3.22547,0-5.96312-2.63157-5.96312-5.75033h0Zm21.75-1.0614v6.557h-2.99236v-1.10332c-.78509.8702-2.03704,1.35803-3.24643,1.35803-2.3343,0-4.11663-1.40058-4.11663-3.50114,0-2.16471,2.01608-3.64977,4.54094-3.64977.89116,0,1.8884.19119,2.82213.57294v-.23375c0-1.16683-.74253-2.18504-2.54582-2.18504-1.01884,0-1.97352.33919-2.84372.78509l-1.0398-2.05863c1.54922-.78509,3.05587-1.20939,4.58349-1.20939,2.86468,0,4.8382,1.80392,4.8382,4.66797h0Zm-2.99236,3.09843v-.99724c-.69997-.27631-1.52762-.4243-2.37623-.4243-1.12491,0-2.03704.65742-2.03704,1.54858s.80605,1.44314,1.86744,1.44314c1.1878,0,2.31271-.55198,2.54582-1.57018Zm10.8642.91213l5.36795-4.15855c1.74041-1.37962,2.29175-2.3343,2.29175-3.35314,0-1.20939-1.0182-1.93096-2.20663-1.93096-1.42154,0-2.5039.72157-3.56466,1.93096l-1.99448-1.93096c1.4425-1.82425,3.28899-2.84309,5.64425-2.84309,3.0978,0,5.34699,1.91,5.34699,4.64701,0,1.95192-.84861,3.45858-3.39506,5.30506l-2.65253,2.058h6.17527v2.82213h-11.01283v-2.54646Zm13.11276-4.75308c0-4.41326,2.71605-7.53266,6.55701-7.53266s6.53542,3.11939,6.53542,7.53266c0,4.43487-2.69445,7.55426-6.53542,7.55426s-6.55701-3.11939-6.55701-7.55425h0Zm9.88856,0c0-2.73701-1.37962-4.68957-3.33154-4.68957s-3.33154,1.95256-3.33154,4.68957c0,2.73764,1.37962,4.71054,3.33154,4.71054s3.33154-1.97288,3.33154-4.71053h0Zm5.09228,4.75307l5.36795-4.15855c1.74041-1.37962,2.29175-2.3343,2.29175-3.35314,0-1.20939-1.0182-1.93096-2.20663-1.93096-1.42154,0-2.5039.72157-3.56466,1.93096l-1.99448-1.93096c1.4425-1.82425,3.28899-2.84309,5.64425-2.84309,3.0978,0,5.34699,1.91,5.34699,4.64701,0,1.95192-.84861,3.45858-3.39506,5.30506l-2.65253,2.058h6.17463v2.82213h-11.0122v-2.54646Zm12.66749.36078l1.84585-2.0796c1.0398,1.10332,2.41942,1.71881,3.88352,1.71881,1.59114,0,2.54582-.74253,2.54582-1.78233,0-1.12428-.89116-1.69721-2.84309-1.67625h-1.67625v-2.67349l1.67625.02096c1.59114,0,2.54646-.5939,2.54646-1.6337,0-1.06076-1.01884-1.73977-2.46134-1.73977-1.35803,0-2.44038.67901-3.41666,1.69721l-1.80329-1.90937c1.20939-1.4641,2.94916-2.58901,5.53818-2.58901,3.26739,0,5.32602,1.67625,5.32602,3.98896,0,1.67625-1.12491,2.88628-2.73765,3.35314,1.59177.36078,3.05587,1.48506,3.05587,3.41602,0,2.52486-2.20727,4.34975-5.62329,4.34975-2.60997,0-4.62542-1.0398-5.8564-2.46134Z" class="cls-2"/></svg>